<svg width="228" height="191" viewBox="0 0 228 191" fill="none" xmlns="http://www.w3.org/2000/svg">
<g clip-path="url(#clip0_59_230)">
<path d="M187.275 73.216C187.275 113.653 154.465 146.432 113.991 146.432C73.5165 146.432 40.707 113.653 40.707 73.216C40.707 32.7792 73.5165 0 113.991 0C154.465 0 187.275 32.7792 187.275 73.216ZM89.4904 54.0698H98.5822L94.6371 52.2926L105.682 44.7732C112.52 44.1808 119.45 45.9738 126.249 45.5709L129.19 43.0473L154.319 47.5614C159.916 51.3646 165.66 55.073 170.53 59.8003C170.265 60.3295 169.451 59.8003 169.044 59.7055C159.75 57.5294 153.797 55.227 143.863 54.8478C137.649 54.6109 125.442 54.3423 119.837 56.546C119.126 56.8264 117.679 58.3746 117.616 59.0775C119.56 61.6406 122.664 63.9352 125.363 65.8545L139.305 65.3293C136.602 71.4191 132.831 77.0982 129.933 83.1446C130.894 91.5052 132.676 99.8777 132.882 108.278L110.844 137.605C110.678 138.498 111.236 138.15 111.825 138.194C143.389 140.496 173.487 115.3 178.716 84.5663C187.52 32.8305 135.234 -7.322 87.253 13.7238C56.4912 27.2146 41.0549 61.8539 51.5539 93.9617C52.2773 94.483 60.373 87.3506 62.0016 86.8964C70.4965 88.4801 79.1851 89.345 87.5535 91.4539L95.3961 110.746C94.7794 113.578 83.6598 130.528 84.3595 131.476C84.4029 131.535 85.6007 131.863 85.7588 131.855C86.1936 131.831 92.2575 127.029 92.5737 126.46C93.6252 124.577 98.3806 109.443 98.8115 107.01C98.9142 106.441 99.1514 105.908 98.9024 105.32L88.5259 88.4129C79.861 86.3909 71.0104 85.0718 62.219 83.6896C61.8 83.2749 63.4128 79.8192 63.733 79.0807C68.4014 68.2083 74.062 57.5966 78.853 46.7952L98.8233 35.5121L117.663 36.7877C118.11 36.9022 125.154 41.0648 125.609 41.4874C126.893 42.6998 125.446 43.5607 124.106 43.8214L105.595 42.293C100.132 46.0607 94.5146 49.7375 89.4944 54.0698H89.4904ZM113.955 49.3662C113.777 49.1609 109.137 47.6838 108.741 47.7431C108.512 47.7786 105.512 50.7919 105.421 51.0091C105.263 51.3804 105.176 51.8543 105.282 52.2374C105.377 52.5928 111.627 55.0058 112.172 54.8913C112.746 54.0106 114.556 50.0573 113.959 49.3662H113.955ZM119.529 71.0558C118.742 70.3607 109.848 76.3913 108.342 77.0547C105.152 78.4607 100.871 79.0886 97.586 80.5222L95.0245 81.711L109.275 80.7513C112.283 78.437 115.208 75.8621 117.956 73.2318C118.276 72.9238 119.968 71.4428 119.529 71.0558ZM113.204 119.229L112.809 105.217L112.026 101.465L105.697 116.074L111.228 112.918C111.52 114.668 111.967 116.457 112.536 118.131C112.678 118.546 112.623 119.324 113.2 119.233L113.204 119.229Z" fill="#020202"/>
<path d="M113.956 49.3661C114.553 50.0572 112.746 54.0105 112.169 54.8912C111.623 55.0057 105.378 52.5927 105.279 52.2372C105.176 51.8542 105.263 51.3802 105.417 51.009C105.508 50.7957 108.509 47.7785 108.738 47.7429C109.133 47.6837 113.774 49.1607 113.952 49.3661H113.956Z" fill="#0785D6"/>
<path d="M166.174 59.9978L155.588 62.2489C146.093 63.8918 136.456 64.0577 126.826 64.3578C125.621 64.3736 120.169 59.3185 120.328 58.6155C121.13 57.9323 122.462 57.6993 123.486 57.4229C129.514 55.8076 143.267 55.9537 149.789 56.4197C155.153 56.8068 160.905 58.9315 166.174 59.9938V59.9978Z" fill="#050505"/>
<path d="M13.0566 190.992C11.1631 190.992 9.41593 190.676 7.82289 190.04C6.2259 189.404 4.84236 188.508 3.66834 187.347C2.49431 186.186 1.58909 184.807 0.952662 183.216C0.316237 181.624 0 179.867 0 177.951C0 176.036 0.336002 174.358 1.008 172.778C1.68001 171.198 2.60895 169.824 3.79483 168.663C4.98072 167.502 6.38401 166.597 8.00472 165.95C9.62543 165.302 11.3924 164.978 13.3096 164.978C14.5073 164.978 15.6853 165.132 16.8356 165.444C17.9859 165.756 19.0611 166.218 20.0533 166.826C21.0495 167.438 21.9073 168.161 22.6267 168.998L18.8872 173.276C18.3852 172.75 17.8515 172.288 17.2862 171.893C16.721 171.498 16.1043 171.19 15.4323 170.977C14.7603 170.76 14.0409 170.653 13.274 170.653C12.3134 170.653 11.4082 170.827 10.5583 171.174C9.70845 171.522 8.96134 172.012 8.32887 172.648C7.6964 173.283 7.19437 174.057 6.83465 174.966C6.47494 175.878 6.2931 176.893 6.2931 178.019C6.2931 179.144 6.47494 180.12 6.83465 181.02C7.19437 181.921 7.69639 182.691 8.34468 183.338C8.99296 183.986 9.77565 184.476 10.7006 184.811C11.6217 185.147 12.6494 185.313 13.776 185.313C14.5429 185.313 15.2742 185.206 15.9699 184.989C16.6656 184.772 17.306 184.48 17.895 184.108C18.484 183.737 19.0058 183.311 19.4604 182.833L22.4093 187.505C21.8084 188.176 21.0099 188.777 20.0177 189.302C19.0216 189.827 17.9187 190.242 16.7091 190.542C15.4995 190.842 14.282 190.992 13.0566 190.992Z" fill="black"/>
<path d="M38.0551 190.992C36.1379 190.992 34.3868 190.668 32.8016 190.02C31.2165 189.373 29.8409 188.464 28.6669 187.288C27.4928 186.115 26.5797 184.736 25.9314 183.157C25.2831 181.577 24.959 179.839 24.959 177.944C24.959 176.048 25.2831 174.314 25.9314 172.73C26.5797 171.147 27.4889 169.772 28.6669 168.599C29.8448 167.427 31.2205 166.514 32.8016 165.867C34.3828 165.219 36.1221 164.895 38.0195 164.895C39.917 164.895 41.6523 165.219 43.2335 165.867C44.8147 166.514 46.1942 167.423 47.3722 168.599C48.5462 169.772 49.4515 171.151 50.0879 172.73C50.7243 174.31 51.0406 176.048 51.0406 177.944C51.0406 179.839 50.7243 181.545 50.0879 183.137C49.4515 184.732 48.5462 186.115 47.3722 187.288C46.1982 188.46 44.8186 189.373 43.2335 190.02C41.6483 190.668 39.9249 190.992 38.0551 190.992ZM38.0195 185.242C39.0038 185.242 39.909 185.06 40.7352 184.705C41.5614 184.345 42.2808 183.836 42.8935 183.176C43.5062 182.517 43.9766 181.747 44.3126 180.858C44.6486 179.973 44.8147 179.002 44.8147 177.947C44.8147 176.893 44.6486 175.921 44.3126 175.037C43.9766 174.152 43.5023 173.378 42.8935 172.719C42.2808 172.059 41.5614 171.55 40.7352 171.19C39.909 170.831 39.0038 170.653 38.0195 170.653C37.0353 170.653 36.13 170.835 35.3039 171.19C34.4777 171.55 33.7503 172.059 33.1297 172.719C32.5052 173.378 32.0308 174.152 31.7106 175.037C31.3865 175.925 31.2244 176.893 31.2244 177.947C31.2244 179.002 31.3865 179.977 31.7106 180.878C32.0348 181.774 32.5091 182.548 33.1297 183.196C33.7543 183.844 34.4777 184.345 35.3039 184.705C36.13 185.064 37.0353 185.242 38.0195 185.242Z" fill="black"/>
<path d="M55.793 190.633V165.476H67.1261C68.731 165.476 70.1896 165.823 71.498 166.518C72.8065 167.213 73.8303 168.165 74.5734 169.374C75.3166 170.582 75.6882 171.956 75.6882 173.489C75.6882 175.021 75.3166 176.49 74.5734 177.746C73.8303 179.002 72.8104 179.993 71.5178 180.712C70.2212 181.431 68.7586 181.79 67.13 181.79H61.6275V190.633H55.8009H55.793ZM61.6196 177.118H66.5845C67.2091 177.118 67.7546 176.98 68.221 176.703C68.6875 176.427 69.0472 176.04 69.3002 175.534C69.5532 175.033 69.6797 174.456 69.6797 173.809C69.6797 173.161 69.5374 172.592 69.2488 172.102C68.9603 171.613 68.5491 171.234 68.0076 170.969C67.466 170.704 66.8138 170.574 66.0469 170.574H61.6236V177.114L61.6196 177.118ZM69.7469 190.633L63.3431 179.274L69.6006 178.374L76.7238 190.629H69.7469V190.633Z" fill="black"/>
<path d="M87.0135 190.633L76.9414 165.476H83.3096L88.1678 178.307C88.4563 179.049 88.7014 179.697 88.907 180.246C89.1086 180.799 89.2904 181.312 89.4485 181.79C89.6027 182.268 89.749 182.754 89.8794 183.247C90.0099 183.737 90.1601 184.294 90.33 184.918H89.2153C89.409 184.104 89.5988 183.378 89.7925 182.742C89.9861 182.106 90.1996 181.447 90.4407 180.767C90.6819 180.084 90.9783 179.263 91.3381 178.307L96.0144 165.476H102.272L92.1286 190.633H87.0214H87.0135Z" fill="black"/>
<path d="M115.971 190.992C114.054 190.992 112.303 190.668 110.718 190.02C109.133 189.373 107.757 188.464 106.583 187.288C105.409 186.115 104.496 184.736 103.847 183.157C103.199 181.577 102.875 179.839 102.875 177.944C102.875 176.048 103.199 174.314 103.847 172.73C104.496 171.147 105.405 169.772 106.583 168.599C107.761 167.427 109.136 166.514 110.718 165.867C112.299 165.219 114.038 164.895 115.936 164.895C117.833 164.895 119.568 165.219 121.149 165.867C122.731 166.514 124.11 167.423 125.288 168.599C126.462 169.772 127.367 171.151 128.004 172.73C128.64 174.31 128.957 176.048 128.957 177.944C128.957 179.839 128.64 181.545 128.004 183.137C127.367 184.732 126.462 186.115 125.288 187.288C124.114 188.46 122.735 189.373 121.149 190.02C119.564 190.668 117.841 190.992 115.971 190.992ZM115.936 185.242C116.92 185.242 117.825 185.06 118.651 184.705C119.477 184.345 120.197 183.836 120.81 183.176C121.422 182.517 121.893 181.747 122.229 180.858C122.565 179.973 122.731 179.002 122.731 177.947C122.731 176.893 122.565 175.921 122.229 175.037C121.893 174.152 121.418 173.378 120.81 172.719C120.197 172.059 119.477 171.55 118.651 171.19C117.825 170.831 116.92 170.653 115.936 170.653C114.951 170.653 114.046 170.835 113.22 171.19C112.394 171.55 111.666 172.059 111.046 172.719C110.421 173.378 109.947 174.152 109.627 175.037C109.302 175.925 109.14 176.893 109.14 177.947C109.14 179.002 109.302 179.977 109.627 180.878C109.951 181.774 110.425 182.548 111.046 183.196C111.67 183.844 112.394 184.345 113.22 184.705C114.046 185.064 114.951 185.242 115.936 185.242Z" fill="black"/>
<path d="M133.705 190.633V165.476H139.172L152.375 183.445L151.189 183.263C151.07 182.473 150.972 181.719 150.9 181C150.829 180.282 150.762 179.575 150.703 178.88C150.643 178.184 150.596 177.478 150.56 176.759C150.525 176.04 150.501 175.262 150.489 174.421C150.477 173.584 150.47 172.671 150.47 171.688V165.472H156.403V190.629H150.865L137.089 172.083L138.923 172.336C139.042 173.485 139.144 174.46 139.227 175.266C139.31 176.068 139.382 176.782 139.445 177.403C139.504 178.027 139.548 178.587 139.571 179.093C139.595 179.594 139.615 180.092 139.627 180.586C139.638 181.075 139.646 181.62 139.646 182.221V190.629H133.709L133.705 190.633Z" fill="#0F8CD7"/>
<path d="M162.734 190.633V165.476H180.289V170.689H168.672V185.423H180.649V190.637H162.734V190.633ZM165.612 180.317V175.357H178.669V180.317H165.612Z" fill="#0F8CD7"/>
<path d="M194.28 190.992C192.624 190.992 191.133 190.794 189.801 190.4C188.469 190.005 187.287 189.428 186.259 188.674C185.228 187.919 184.303 187.027 183.488 185.996L187.192 181.79C188.39 183.393 189.596 184.472 190.809 185.025C192.019 185.577 193.272 185.85 194.568 185.85C195.217 185.85 195.802 185.767 196.331 185.597C196.857 185.431 197.268 185.183 197.553 184.859C197.841 184.535 197.984 184.136 197.984 183.654C197.984 183.295 197.893 182.971 197.715 182.683C197.533 182.394 197.288 182.146 196.976 181.928C196.663 181.711 196.292 181.514 195.861 181.336C195.43 181.158 194.972 181 194.493 180.87C194.015 180.74 193.521 180.625 193.019 180.526C191.627 180.214 190.418 179.831 189.386 179.377C188.354 178.923 187.497 178.366 186.813 177.706C186.129 177.047 185.619 176.293 185.283 175.444C184.947 174.594 184.781 173.643 184.781 172.588C184.781 171.463 185.038 170.428 185.556 169.48C186.07 168.532 186.765 167.719 187.643 167.036C188.516 166.352 189.532 165.827 190.683 165.456C191.833 165.085 193.035 164.899 194.28 164.899C195.936 164.899 197.355 165.073 198.541 165.42C199.727 165.768 200.747 166.265 201.601 166.913C202.451 167.561 203.178 168.339 203.775 169.251L200 172.88C199.498 172.256 198.952 171.743 198.363 171.336C197.774 170.929 197.154 170.618 196.493 170.4C195.833 170.183 195.157 170.076 194.462 170.076C193.766 170.076 193.126 170.167 192.608 170.345C192.09 170.527 191.691 170.775 191.402 171.099C191.114 171.423 190.971 171.814 190.971 172.268C190.971 172.675 191.09 173.023 191.331 173.311C191.572 173.599 191.892 173.856 192.303 174.085C192.711 174.314 193.177 174.504 193.707 174.662C194.232 174.816 194.786 174.942 195.363 175.041C196.683 175.305 197.873 175.653 198.94 176.083C200.008 176.514 200.933 177.043 201.711 177.663C202.49 178.287 203.091 179.022 203.51 179.875C203.929 180.724 204.138 181.715 204.138 182.841C204.138 184.59 203.712 186.071 202.862 187.28C202.012 188.488 200.846 189.412 199.371 190.048C197.897 190.684 196.201 191 194.28 191V190.992Z" fill="#0F8CD7"/>
<path d="M214.211 190.633V170.866H206.729V165.476H227.987V170.866H220.327V190.633H214.211Z" fill="#0F8CD7"/>
</g>
<defs>
<clipPath id="clip0_59_230">
<rect width="228" height="191" fill="white"/>
</clipPath>
</defs>
</svg>
