<svg width="474" height="116" viewBox="0 0 474 116" fill="none" xmlns="http://www.w3.org/2000/svg">
<path d="M115.994 58C115.994 90.0331 90.0288 116 57.9972 116C25.9656 116 0 90.0331 0 58C0 25.9669 25.9656 0 57.9972 0C90.0288 0 115.994 25.9669 115.994 58ZM38.6075 42.8328H45.8028L42.6806 41.425L51.4214 35.4683C56.8335 34.999 62.3175 36.4193 67.6984 36.1002L70.0259 34.1011L89.9131 37.677C94.3429 40.6898 98.8884 43.6275 102.743 47.3724C102.533 47.7916 101.889 47.3723 101.566 47.2973C94.2115 45.5734 89.5001 43.7495 81.6385 43.4492C76.7207 43.2615 67.0602 43.0487 62.6241 44.7944C62.061 45.0166 60.916 46.2429 60.866 46.7998C62.4051 48.8302 64.8609 50.6479 66.9976 52.1684L78.0315 51.7523C75.8916 56.5765 72.9072 61.0754 70.614 65.8652C71.3742 72.4883 72.7851 79.1208 72.9478 85.7752L55.507 109.008C55.3756 109.715 55.8168 109.439 56.2829 109.474C81.2631 111.298 105.083 91.3377 109.222 66.9914C116.188 26.0076 74.8092 -5.80031 36.8368 10.8717C12.4917 21.5588 0.275299 48.9992 8.58431 74.4342C9.1568 74.8472 15.5637 69.197 16.8526 68.8373C23.5756 70.0918 30.4518 70.777 37.0746 72.4476L43.2813 87.7305C42.7933 89.9737 33.9931 103.401 34.5468 104.152C34.5812 104.199 35.5291 104.459 35.6543 104.453C35.9984 104.434 40.7974 100.629 41.0476 100.179C41.8798 98.6867 45.6432 86.6981 45.9842 84.7709C46.0656 84.3204 46.2533 83.8981 46.0562 83.4319L37.8441 70.0386C30.9867 68.4368 23.9822 67.3919 17.0247 66.2969C16.6931 65.9684 17.9695 63.2309 18.2229 62.6459C21.9175 54.033 26.3974 45.6266 30.189 37.0701L45.9936 28.1318L60.9035 29.1423C61.257 29.2331 66.8318 32.5306 67.1916 32.8653C68.2083 33.8258 67.0633 34.5078 66.0028 34.7143L51.3525 33.5035C47.0291 36.4882 42.5837 39.4008 38.6106 42.8328H38.6075ZM57.9691 39.1068C57.8283 38.9441 54.1556 37.774 53.8427 37.8209C53.6613 37.8491 51.2868 40.2362 51.2149 40.4082C51.0898 40.7023 51.0209 41.0777 51.1054 41.3812C51.1805 41.6628 56.1265 43.5743 56.5582 43.4836C57.0118 42.7859 58.4446 39.6542 57.9722 39.1068H57.9691ZM62.3801 56.2887C61.7576 55.7381 54.7187 60.5153 53.5268 61.0409C51.0022 62.1547 47.6141 62.6521 45.0144 63.7878L42.9872 64.7295L54.2651 63.9693C56.6458 62.1359 58.9608 60.0961 61.135 58.0125C61.3884 57.7685 62.7274 56.5953 62.3801 56.2887ZM57.3747 94.4506L57.0618 83.3506L56.4424 80.3784L51.4339 91.9509L55.8105 89.4512C56.042 90.8372 56.3955 92.2544 56.846 93.5809C56.9586 93.9094 56.9148 94.5257 57.3716 94.4537L57.3747 94.4506Z" fill="#020202"/>
<path d="M57.9685 39.1065C58.4409 39.654 57.0112 42.7857 56.5545 43.4834C56.1227 43.5741 51.1799 41.6626 51.1017 41.381C51.0203 41.0775 51.0892 40.7021 51.2112 40.408C51.2831 40.2391 53.6576 37.8489 53.839 37.8207C54.1519 37.7738 57.8246 38.9439 57.9654 39.1065H57.9685Z" fill="#0785D6"/>
<path d="M99.2955 47.5288L90.9177 49.3121C83.4033 50.6136 75.7763 50.745 68.1555 50.9827C67.2013 50.9952 62.8873 46.9907 63.0124 46.4338C63.6475 45.8926 64.7018 45.708 65.512 45.489C70.2828 44.2094 81.1665 44.3252 86.3283 44.6944C90.5736 45.001 95.1254 46.6841 99.2955 47.5257V47.5288Z" fill="#050505"/>
<path d="M155.817 77.3299C153.014 77.3299 150.428 76.8618 148.069 75.9195C145.705 74.9773 143.657 73.6489 141.919 71.9283C140.181 70.2078 138.841 68.1653 137.899 65.8069C136.956 63.4484 136.488 60.8442 136.488 58.0058C136.488 55.1675 136.986 52.6803 137.981 50.3394C138.975 47.9985 140.351 45.962 142.106 44.2414C143.862 42.5208 145.939 41.1807 148.338 40.2209C150.738 39.2611 153.354 38.7812 156.192 38.7812C157.965 38.7812 159.709 39.0095 161.412 39.4718C163.115 39.9341 164.706 40.6188 166.175 41.5201C167.65 42.4272 168.92 43.4981 169.985 44.7388L164.449 51.0768C163.706 50.2985 162.916 49.6137 162.079 49.0285C161.242 48.4433 160.329 47.9868 159.334 47.6708C158.339 47.3489 157.274 47.1909 156.139 47.1909C154.717 47.1909 153.377 47.4484 152.119 47.9634C150.861 48.4784 149.755 49.2041 148.818 50.1463C147.882 51.0885 147.139 52.2355 146.606 53.5815C146.074 54.9334 145.805 56.4375 145.805 58.1053C145.805 59.7732 146.074 61.2187 146.606 62.553C147.139 63.8873 147.882 65.0285 148.842 65.9883C149.801 66.948 150.96 67.6737 152.33 68.1712C153.693 68.6686 155.215 68.9144 156.882 68.9144C158.018 68.9144 159.1 68.7564 160.13 68.4345C161.16 68.1126 162.108 67.6796 162.98 67.1295C163.852 66.5794 164.624 65.9473 165.297 65.2392L169.663 72.1624C168.774 73.1573 167.591 74.0468 166.123 74.8252C164.648 75.6035 163.015 76.218 161.224 76.6628C159.434 77.1075 157.631 77.3299 155.817 77.3299Z" fill="black"/>
<path d="M192.825 77.3298C189.987 77.3298 187.394 76.8499 185.048 75.8901C182.701 74.9303 180.665 73.5843 178.927 71.8404C177.189 70.1022 175.837 68.0598 174.877 65.7189C173.917 63.3781 173.438 60.8031 173.438 57.994C173.438 55.1849 173.917 52.6158 174.877 50.269C175.837 47.9223 177.183 45.8857 178.927 44.1476C180.671 42.4095 182.707 41.0576 185.048 40.0978C187.389 39.1381 189.963 38.6582 192.772 38.6582C195.581 38.6582 198.15 39.1381 200.491 40.0978C202.832 41.0576 204.874 42.4036 206.618 44.1476C208.356 45.8857 209.696 47.9281 210.638 50.269C211.581 52.6099 212.049 55.1849 212.049 57.994C212.049 60.8031 211.581 63.3312 210.638 65.6897C209.696 68.054 208.356 70.1022 206.618 71.8404C204.88 73.5785 202.838 74.9303 200.491 75.8901C198.144 76.8499 195.593 77.3298 192.825 77.3298ZM192.772 68.8089C194.23 68.8089 195.57 68.5397 196.793 68.013C198.016 67.4805 199.081 66.7255 199.988 65.7482C200.895 64.7709 201.591 63.6297 202.089 62.3129C202.586 61.002 202.832 59.5624 202.832 57.9998C202.832 56.4373 202.586 54.9977 202.089 53.6868C201.591 52.3759 200.889 51.2288 199.988 50.2515C199.081 49.2741 198.016 48.5192 196.793 47.9866C195.57 47.4541 194.23 47.1908 192.772 47.1908C191.315 47.1908 189.975 47.4599 188.752 47.9866C187.529 48.5192 186.452 49.2741 185.533 50.2515C184.609 51.2288 183.907 52.3759 183.433 53.6868C182.953 55.0035 182.713 56.4373 182.713 57.9998C182.713 59.5624 182.953 61.0079 183.433 62.3422C183.913 63.6707 184.615 64.8177 185.533 65.7775C186.458 66.7372 187.529 67.4805 188.752 68.013C189.975 68.5456 191.315 68.8089 192.772 68.8089Z" fill="black"/>
<path d="M219.082 76.7973V39.5186H235.86C238.235 39.5186 240.395 40.0335 242.332 41.0635C244.269 42.0935 245.785 43.5039 246.885 45.2947C247.985 47.0855 248.535 49.1221 248.535 51.3927C248.535 53.6634 247.985 55.8404 246.885 57.7015C245.785 59.5625 244.275 61.0314 242.361 62.0965C240.442 63.1616 238.276 63.6941 235.865 63.6941H227.72V76.7973H219.094H219.082ZM227.708 56.7709H235.058C235.982 56.7709 236.79 56.5661 237.481 56.1565C238.171 55.7468 238.704 55.1733 239.078 54.4242C239.453 53.6809 239.64 52.8265 239.64 51.8668C239.64 50.907 239.429 50.0643 239.002 49.3386C238.575 48.6129 237.966 48.0511 237.165 47.659C236.363 47.2669 235.397 47.0738 234.262 47.0738H227.714V56.7651L227.708 56.7709ZM239.739 76.7973L230.259 59.9663L239.523 58.6319L250.068 76.7914H239.739V76.7973Z" fill="black"/>
<path d="M265.301 76.7973L250.391 39.5186H259.818L267.01 58.5325C267.437 59.6327 267.8 60.5924 268.104 61.4059C268.403 62.2252 268.672 62.986 268.906 63.6941C269.134 64.4023 269.351 65.1221 269.544 65.8536C269.737 66.5793 269.96 67.4044 270.211 68.3291H268.561C268.848 67.1235 269.129 66.0467 269.415 65.1045C269.702 64.1623 270.018 63.185 270.375 62.1784C270.732 61.166 271.171 59.9487 271.703 58.5325L278.626 39.5186H287.89L272.874 76.7973H265.313H265.301Z" fill="black"/>
<path d="M308.173 77.3298C305.334 77.3298 302.742 76.8499 300.395 75.8901C298.049 74.9303 296.012 73.5843 294.274 71.8404C292.536 70.1022 291.184 68.0598 290.225 65.7189C289.265 63.3781 288.785 60.8031 288.785 57.994C288.785 55.1849 289.265 52.6158 290.225 50.269C291.184 47.9223 292.53 45.8857 294.274 44.1476C296.018 42.4095 298.055 41.0576 300.395 40.0978C302.736 39.1381 305.311 38.6582 308.12 38.6582C310.929 38.6582 313.498 39.1381 315.839 40.0978C318.18 41.0576 320.222 42.4036 321.966 44.1476C323.704 45.8857 325.044 47.9281 325.986 50.269C326.928 52.6099 327.396 55.1849 327.396 57.994C327.396 60.8031 326.928 63.3312 325.986 65.6897C325.044 68.054 323.704 70.1022 321.966 71.8404C320.228 73.5785 318.185 74.9303 315.839 75.8901C313.492 76.8499 310.941 77.3298 308.173 77.3298ZM308.12 68.8089C309.577 68.8089 310.917 68.5397 312.14 68.013C313.363 67.4805 314.428 66.7255 315.335 65.7482C316.243 64.7709 316.939 63.6297 317.436 62.3129C317.934 61.002 318.18 59.5624 318.18 57.9998C318.18 56.4373 317.934 54.9977 317.436 53.6868C316.939 52.3759 316.237 51.2288 315.335 50.2515C314.428 49.2741 313.363 48.5192 312.14 47.9866C310.917 47.4541 309.577 47.1908 308.12 47.1908C306.663 47.1908 305.323 47.4599 304.1 47.9866C302.877 48.5192 301.8 49.2741 300.881 50.2515C299.957 51.2288 299.254 52.3759 298.78 53.6868C298.3 55.0035 298.06 56.4373 298.06 57.9998C298.06 59.5624 298.3 61.0079 298.78 62.3422C299.26 63.6707 299.962 64.8177 300.881 65.7775C301.806 66.7372 302.877 67.4805 304.1 68.013C305.323 68.5456 306.663 68.8089 308.12 68.8089Z" fill="black"/>
<path d="M334.424 76.7973V39.5186H342.517L362.063 66.1462L360.307 65.877C360.131 64.7066 359.985 63.5888 359.88 62.5237C359.775 61.4586 359.675 60.411 359.587 59.381C359.499 58.351 359.429 57.3035 359.377 56.2384C359.324 55.1733 359.289 54.0204 359.271 52.7738C359.254 51.5332 359.242 50.1813 359.242 48.7241V39.5127H368.026V76.7914H359.827L339.433 49.3093L342.148 49.6839C342.324 51.3869 342.476 52.8324 342.599 54.0262C342.722 55.2142 342.827 56.2735 342.921 57.1923C343.009 58.117 343.073 58.948 343.108 59.697C343.143 60.4403 343.173 61.1777 343.19 61.9092C343.208 62.6349 343.219 63.4425 343.219 64.332V76.7914H334.43L334.424 76.7973Z" fill="#0F8CD7"/>
<path d="M377.4 76.7973V39.5186H403.389V47.2435H386.19V69.0782H403.921V76.8031H377.4V76.7973ZM381.661 61.5113V54.1609H400.99V61.5113H381.661Z" fill="#0F8CD7"/>
<path d="M424.099 77.3298C421.647 77.3298 419.441 77.0372 417.469 76.4519C415.496 75.8667 413.747 75.0123 412.225 73.8945C410.698 72.7767 409.329 71.4542 408.123 69.9267L413.606 63.6941C415.379 66.0701 417.164 67.6677 418.961 68.4871C420.752 69.3064 422.607 69.7102 424.526 69.7102C425.486 69.7102 426.352 69.5873 427.136 69.3356C427.914 69.0898 428.523 68.7212 428.944 68.2413C429.372 67.7614 429.582 67.1703 429.582 66.4563C429.582 65.9238 429.448 65.4439 429.184 65.0167C428.915 64.5895 428.552 64.2208 428.09 63.8989C427.628 63.577 427.078 63.2844 426.44 63.0211C425.802 62.7577 425.123 62.5236 424.415 62.3305C423.707 62.1374 422.975 61.9677 422.232 61.8214C420.172 61.359 418.382 60.7914 416.854 60.1184C415.327 59.4454 414.057 58.6202 413.045 57.6429C412.032 56.6655 411.277 55.5478 410.78 54.2895C410.282 53.0313 410.037 51.6209 410.037 50.0584C410.037 48.3905 410.417 46.8572 411.184 45.4527C411.944 44.0481 412.974 42.8426 414.273 41.8301C415.567 40.8177 417.071 40.0393 418.774 39.4892C420.477 38.9391 422.256 38.6641 424.099 38.6641C426.551 38.6641 428.652 38.9216 430.407 39.4366C432.163 39.9516 433.673 40.6889 434.937 41.6487C436.195 42.6085 437.272 43.7614 438.155 45.1132L432.567 50.4914C431.823 49.5668 431.016 48.806 430.144 48.2032C429.272 47.6004 428.353 47.1381 427.376 46.8162C426.399 46.4943 425.398 46.3363 424.368 46.3363C423.338 46.3363 422.39 46.471 421.624 46.7343C420.857 47.0035 420.266 47.3722 419.839 47.8521C419.411 48.332 419.201 48.9113 419.201 49.5844C419.201 50.1871 419.376 50.7021 419.733 51.1293C420.09 51.5565 420.564 51.9369 421.173 52.2764C421.776 52.6158 422.466 52.8967 423.25 53.1308C424.029 53.359 424.848 53.5463 425.702 53.6926C427.657 54.0847 429.418 54.5997 430.998 55.2376C432.578 55.8755 433.948 56.6597 435.101 57.5785C436.253 58.5031 437.143 59.5917 437.763 60.8558C438.384 62.114 438.694 63.5829 438.694 65.2508C438.694 67.8433 438.062 70.0379 436.803 71.8287C435.545 73.6195 433.819 74.9889 431.636 75.9311C429.453 76.8733 426.943 77.3415 424.099 77.3415V77.3298Z" fill="#0F8CD7"/>
<path d="M453.605 76.7973V47.5068H442.527V39.5186H473.999V47.5068H462.658V76.7973H453.605Z" fill="#0F8CD7"/>
</svg>
